<svg width="66" height="28" viewBox="0 0 66 28" fill="none" xmlns="http://www.w3.org/2000/svg">
<g clip-path="url(#clip0_5_578)">
<path d="M33.1542 0.276542C33.0456 0.325024 32.858 0.36381 32.7296 0.36381C32.4039 0.373506 31.5252 0.790453 31.1303 1.11044C30.844 1.35285 30.2418 2.15765 30.2418 2.31279C30.2418 2.34188 31.7128 2.37097 33.4997 2.37097C35.2964 2.37097 36.7575 2.35158 36.7575 2.33219C36.7575 2.20613 36.3923 1.65344 36.0961 1.33345C35.5531 0.741971 34.9312 0.470471 33.5984 0.22806C33.4602 0.208667 33.2627 0.22806 33.1542 0.276542Z" fill="#333333"/>
<path d="M20.5175 2.56483C19.787 2.69089 19.0169 2.81694 18.0495 2.97208L17.6546 3.03996L17.6052 7.69424C17.5756 10.2541 17.5361 12.3582 17.5262 12.3776C17.5163 12.397 17.467 12.3776 17.4078 12.3485C17.3485 12.3097 17.309 10.6517 17.309 7.67485C17.309 3.33085 17.2992 3.06905 17.1412 3.13692C17.0425 3.17571 16.6673 3.24358 16.3021 3.30176L15.6307 3.39872V8.28573V13.1727L20.9914 13.1533L26.3422 13.1242L27.0728 12.8334L27.7934 12.5425L27.7836 10.5256C27.7737 9.1778 27.7934 8.51844 27.8625 8.51844C27.9218 8.51844 27.9711 8.46026 27.9711 8.39239C27.9711 8.16937 28.3167 7.93666 28.6425 7.93666C28.8695 7.93666 29.0077 8.01423 29.1953 8.25664C29.452 8.58632 29.452 8.59601 29.452 10.5353C29.452 12.2128 29.4717 12.494 29.6001 12.494C29.7284 12.494 29.7482 12.2128 29.7482 10.5644C29.7482 8.22755 29.837 7.94635 30.5972 7.93666C30.9032 7.93666 31.229 8.17907 31.229 8.40208C31.229 8.46996 31.2784 8.51844 31.3376 8.51844C31.4067 8.51844 31.4264 9.15841 31.4067 10.5062C31.3771 12.3485 31.387 12.494 31.5548 12.494C31.7127 12.494 31.7226 12.3388 31.7226 10.5741C31.7226 8.46026 31.8016 8.0918 32.2755 7.97544C32.6013 7.88817 33.006 8.00453 33.0751 8.20816C33.1047 8.29542 33.1936 8.44087 33.2726 8.52814C33.3812 8.66389 33.4108 9.06144 33.3812 10.5935C33.3515 12.2322 33.3713 12.494 33.4996 12.494C33.628 12.494 33.6477 12.2322 33.6181 10.5935C33.5885 9.06144 33.6181 8.66389 33.7267 8.52814C33.8057 8.44087 33.8945 8.29542 33.9241 8.20816C33.9932 8.00453 34.398 7.88817 34.7238 7.97544C35.1977 8.0918 35.2766 8.46026 35.2766 10.5741C35.2766 12.3388 35.2865 12.494 35.4543 12.494C35.6123 12.494 35.6222 12.3485 35.5926 10.5062C35.5728 9.15841 35.5926 8.51844 35.6617 8.51844C35.7209 8.51844 35.7703 8.46026 35.7703 8.39239C35.7703 8.04332 36.4811 7.80091 36.8365 8.02392C37.1919 8.23725 37.2511 8.60571 37.2511 10.5644C37.2511 12.2128 37.2709 12.494 37.3992 12.494C37.5275 12.494 37.5473 12.2128 37.5473 10.5353C37.5473 8.59601 37.5473 8.58632 37.804 8.25664C37.9915 8.01423 38.1199 7.93666 38.3667 7.93666C39.1466 7.94635 39.2354 8.22755 39.2157 10.5935L39.2058 12.5231L40.0252 12.8431L40.8545 13.1727H46.1165H51.3685V8.28573V3.39872L50.7071 3.30176C50.3319 3.24358 49.9568 3.17571 49.8679 3.13692C49.7001 3.06905 49.6902 3.33085 49.6902 7.67485C49.6902 10.6517 49.6507 12.3097 49.5915 12.3485C49.5224 12.3873 49.4928 10.8747 49.4928 7.88817C49.4928 4.95985 49.4533 3.30176 49.3941 3.17571C49.325 3.06905 49.1867 2.99147 49.0288 2.99147C48.8906 2.99147 48.6142 2.95269 48.4167 2.89451C47.7158 2.71997 45.3662 2.3806 45.2082 2.43878C45.07 2.49696 45.0502 2.81694 45.0502 5.32831C45.0502 7.97544 45.0601 8.14998 45.2279 8.0821C45.7907 7.84939 46.1954 7.92696 46.3336 8.27603C46.383 8.41178 46.4719 8.51844 46.5311 8.51844C46.6002 8.51844 46.6298 9.14871 46.6101 10.4286L46.5805 12.3485H45.6919H44.8034L44.7738 7.41305C44.7639 4.69805 44.7245 2.44847 44.7047 2.41938C44.6751 2.3903 44.0433 2.44847 43.293 2.54544C42.5525 2.6424 41.6147 2.75876 41.2099 2.80724C40.815 2.84603 40.43 2.9333 40.351 3.00117C40.2128 3.11753 40.1634 3.71871 40.272 3.9999C40.3115 4.09687 40.4497 4.15505 40.6274 4.15505C40.9137 4.15505 40.9137 4.16474 40.8841 4.61078C40.8545 5.03742 40.8348 5.07621 40.5583 5.12469C40.2918 5.17317 40.2622 5.21196 40.2128 5.60951L40.1634 6.04585H33.4996H26.8358L26.8062 5.6386C26.7766 5.26044 26.747 5.21196 26.4607 5.14408C26.1645 5.06651 26.1448 5.02773 26.1151 4.62048C26.0855 4.17444 26.0855 4.16474 26.4113 4.13565C26.7272 4.10656 26.7371 4.08717 26.7667 3.64114C26.8062 3.06905 26.6877 2.9139 26.1645 2.85572C25.9374 2.82664 25.0884 2.71028 24.2888 2.60362C23.4792 2.49696 22.6894 2.40969 22.5315 2.40969H22.2452L22.2254 7.37426L22.1958 12.3485H21.3073H20.4188L20.3892 10.4286C20.3694 9.14871 20.3991 8.51844 20.4682 8.51844C20.5274 8.51844 20.6163 8.41178 20.6656 8.27603C20.8038 7.92696 21.2086 7.84939 21.7812 8.0821C21.9391 8.14998 21.949 7.97544 21.949 5.27983V2.40969L21.6331 2.41938C21.4554 2.42908 20.9519 2.49696 20.5175 2.56483ZM23.1633 3.96112C23.3114 3.96112 23.341 4.03869 23.3114 4.46533L23.2818 4.97924L22.9363 4.95015C22.5512 4.92106 22.4426 4.80471 22.4426 4.42655C22.4426 3.9999 22.5414 3.84476 22.7783 3.90294C22.8869 3.93203 23.0646 3.96112 23.1633 3.96112ZM44.4974 4.0193C44.5862 4.23262 44.5665 4.66896 44.4678 4.8144C44.4283 4.89198 44.2308 4.95015 44.0531 4.95985L43.7175 4.97924L43.6879 4.47503C43.6681 4.05808 43.6879 3.97081 43.8359 3.93203C44.2012 3.83506 44.4382 3.86415 44.4974 4.0193ZM24.9601 4.05808C25.1871 4.14535 25.2168 4.19383 25.1871 4.5623C25.1575 4.97924 25.1575 4.97924 24.7429 5.00833L24.3184 5.03742V4.5526C24.3184 3.98051 24.4566 3.87385 24.9601 4.05808ZM42.6809 4.5526V5.03742L42.2662 5.00833C41.8615 4.97924 41.8417 4.95985 41.8121 4.65926C41.7628 4.15505 41.8417 4.05808 42.286 4.05808H42.6809V4.5526ZM16.7957 5.46407C17.0129 5.61921 17.0524 5.93919 17.0326 7.45183C17.0227 7.63607 17.0326 8.00453 17.0326 8.27603C17.0524 9.1681 17.0425 9.27476 16.8845 9.42991C16.7463 9.56566 16.7562 9.61414 16.9438 9.96321C17.1215 10.2832 17.1313 10.3802 17.0326 10.5935C16.8845 10.9135 16.4995 11.0104 16.1836 10.8165C15.9565 10.671 15.9565 10.6323 15.9861 9.51717C16.0059 8.88691 16.0256 8.26633 16.0158 8.13058C16.0158 7.99483 15.996 7.36457 15.996 6.7246C15.9763 5.58042 15.9763 5.56103 16.2231 5.44467C16.539 5.28953 16.5291 5.28953 16.7957 5.46407ZM50.9341 5.52224C51.0131 5.58042 51.0329 6.01676 51.0131 6.85066C50.9638 8.31482 50.9638 8.10149 51.0131 9.51717C51.0427 10.6323 51.0427 10.671 50.8157 10.8165C50.4998 11.0104 50.1147 10.9135 49.9667 10.5935C49.8679 10.3802 49.8778 10.2832 50.0555 9.96321C50.2431 9.61414 50.253 9.56566 50.1147 9.42991C49.9568 9.27476 49.9469 9.1681 49.9667 8.27603C49.9667 8.00453 49.9765 7.63607 49.9667 7.45183C49.9469 5.93919 49.9864 5.61921 50.2036 5.46407C50.4208 5.31862 50.7071 5.34771 50.9341 5.52224ZM23.3114 6.69551C23.2818 7.19973 23.2719 7.20942 22.9461 7.23851C22.5512 7.2773 22.4426 7.15124 22.4426 6.66642C22.4426 6.23008 22.4821 6.1913 22.956 6.1913H23.341L23.3114 6.69551ZM44.5369 6.52098C44.5566 6.66642 44.5468 6.89914 44.5073 7.03489C44.4579 7.23851 44.3987 7.2676 44.0828 7.23851C43.7372 7.20942 43.7175 7.19003 43.6879 6.83126C43.6385 6.26887 43.7076 6.1719 44.1321 6.21069C44.4579 6.23978 44.5073 6.26887 44.5369 6.52098ZM25.1871 6.76339C25.2266 7.28699 25.1378 7.38396 24.6738 7.30639C24.3184 7.23851 24.3184 7.22882 24.3184 6.75369V6.27857L24.7429 6.30765L25.1575 6.33674L25.1871 6.76339ZM42.6809 6.77308C42.6809 7.19973 42.6513 7.25791 42.444 7.31608C41.9898 7.42274 41.8417 7.33548 41.8121 6.92823C41.7628 6.37553 41.8319 6.28826 42.286 6.28826H42.6809V6.77308ZM26.8951 6.61794C26.9642 6.75369 26.9839 6.96701 26.9444 7.10276C26.8852 7.32578 26.8259 7.35487 26.4903 7.35487H26.0954V6.87005V6.38523H26.4409C26.7174 6.38523 26.8161 6.43371 26.8951 6.61794ZM38.9294 6.93792V7.36457L38.5148 7.33548C38.0903 7.30639 38.0903 7.30639 38.0903 6.91853C38.0903 6.56946 38.1199 6.53067 38.3864 6.47249C38.8504 6.39492 38.9294 6.4628 38.9294 6.93792ZM40.9039 6.87005V7.35487H40.509H40.1141V6.93792C40.1141 6.43371 40.1536 6.38523 40.5781 6.38523H40.9039V6.87005ZM28.909 6.91853V7.30639H28.5141C28.1587 7.30639 28.1192 7.28699 28.0896 7.03489C28.0304 6.57915 28.1291 6.4628 28.5339 6.50158C28.8991 6.53067 28.909 6.54037 28.909 6.91853ZM30.9526 6.7149C31.0414 6.85066 31.0513 7.09307 30.9723 7.29669C30.9328 7.40335 30.7847 7.45183 30.5281 7.45183H30.143V7.03489C30.143 6.80217 30.1727 6.57915 30.2121 6.54037C30.3109 6.4531 30.8637 6.57915 30.9526 6.7149ZM32.9073 7.01549V7.45183H32.5223C32.0978 7.45183 32.0287 7.34517 32.0978 6.84096C32.1373 6.60824 32.1767 6.57915 32.5223 6.57915H32.9073V7.01549ZM34.941 6.81187C35.0496 7.25791 34.9114 7.45183 34.477 7.45183H34.092V7.01549V6.57915H34.4869C34.8225 6.57915 34.8916 6.61794 34.941 6.81187ZM36.8069 7.01549C36.8069 7.40335 36.8069 7.40335 36.3922 7.43244L35.9677 7.46153V7.01549V6.56946L36.3922 6.59855C36.8069 6.62764 36.8069 6.62764 36.8069 7.01549ZM23.4694 7.99483C23.8544 8.14028 23.9334 8.58632 23.9037 10.5159L23.8741 12.3485H23.1337H22.3933L22.3637 10.5547C22.334 8.73176 22.3933 8.31482 22.7191 8.05301C22.8869 7.92696 23.2225 7.89787 23.4694 7.99483ZM25.2859 7.99483C25.4043 8.03362 25.5031 8.13058 25.5031 8.23725C25.5031 8.33421 25.5524 8.44087 25.6018 8.46996C25.661 8.50875 25.7005 9.28446 25.7005 10.4674V12.4067L24.9403 12.3776L24.1703 12.3485L24.1407 10.5159C24.1209 9.02266 24.1407 8.61541 24.269 8.3633C24.4665 7.95605 24.733 7.85908 25.2859 7.99483ZM27.2208 8.0918C27.3097 8.16937 27.3788 8.30512 27.3788 8.38269C27.3788 8.46026 27.4282 8.51844 27.4775 8.51844C27.5466 8.51844 27.5664 9.1778 27.5565 10.4286L27.5269 12.3485L26.7963 12.3776C26.2731 12.397 26.0362 12.3679 25.9868 12.2807C25.8585 12.0867 25.8782 8.88691 26.0065 8.50875C26.0658 8.32451 26.1941 8.12089 26.2731 8.05301C26.4903 7.88817 27.0333 7.90757 27.2208 8.0918ZM40.6966 8.03362C41.0125 8.19846 41.1112 8.84812 41.0816 10.6517L41.052 12.3485H40.2622H39.4724L39.4428 10.5644C39.423 9.05175 39.4428 8.72207 39.581 8.43117C39.6698 8.23725 39.7982 8.05301 39.8574 8.01423C40.0154 7.90757 40.4892 7.91726 40.6966 8.03362ZM42.4242 7.99483C42.8092 8.14028 42.8882 8.58632 42.8586 10.5159L42.829 12.3485L42.0688 12.3776L41.2988 12.4067V10.5256C41.2988 8.60571 41.358 8.23725 41.7134 8.02392C41.8615 7.92696 42.207 7.91726 42.4242 7.99483ZM44.2506 8.02392C44.5862 8.19846 44.6652 8.77055 44.6356 10.6032L44.606 12.3485H43.8656H43.1251L43.0955 10.5159C43.0659 8.27603 43.1548 7.96574 43.8458 7.94635C43.9742 7.93666 44.1519 7.97544 44.2506 8.02392Z" fill="#333333"/>
<path d="M16.3317 5.74527C16.2429 5.85193 16.2527 5.89072 16.3811 5.9392C16.6081 6.02647 16.618 6.01677 16.618 5.80345C16.618 5.58043 16.4897 5.55134 16.3317 5.74527Z" fill="#333333"/>
<path d="M16.4996 7.42274C16.4009 7.45183 16.3219 7.51971 16.3219 7.59728C16.3219 7.67485 16.391 7.70394 16.5193 7.67485C16.8945 7.57788 16.8649 7.34517 16.4996 7.42274Z" fill="#333333"/>
<path d="M16.3909 8.97425C16.2724 9.08091 16.3119 9.19727 16.4699 9.19727C16.5489 9.19727 16.618 9.12939 16.618 9.05182C16.618 8.89668 16.4995 8.85789 16.3909 8.97425Z" fill="#333333"/>
<path d="M16.3219 10.4189C16.3219 10.4965 16.4108 10.5547 16.5193 10.5547C16.6279 10.5547 16.7168 10.4965 16.7168 10.4286C16.7168 10.3608 16.6279 10.3026 16.5193 10.2929C16.4108 10.2832 16.3219 10.3317 16.3219 10.4189Z" fill="#333333"/>
<path d="M50.3813 5.80345C50.3813 6.01677 50.3912 6.02647 50.6183 5.9392C50.7466 5.89072 50.7565 5.85193 50.6676 5.74527C50.5097 5.55134 50.3813 5.58043 50.3813 5.80345Z" fill="#333333"/>
<path d="M50.2826 7.50031C50.2826 7.56819 50.3714 7.64576 50.48 7.67485C50.5985 7.70394 50.6775 7.67485 50.6775 7.59728C50.6775 7.5294 50.5886 7.45183 50.48 7.42274C50.3616 7.39365 50.2826 7.42274 50.2826 7.50031Z" fill="#333333"/>
<path d="M50.3813 9.04212C50.3813 9.12939 50.4505 9.19727 50.5393 9.19727C50.7071 9.19727 50.6775 8.98394 50.4998 8.92577C50.4307 8.90637 50.3813 8.95485 50.3813 9.04212Z" fill="#333333"/>
<path d="M50.2826 10.4286C50.2826 10.4965 50.3714 10.5547 50.48 10.5547C50.5886 10.5547 50.6775 10.4965 50.6775 10.4189C50.6775 10.3317 50.5886 10.2832 50.48 10.2929C50.3714 10.3026 50.2826 10.3608 50.2826 10.4286Z" fill="#333333"/>
<path d="M29.0276 2.75879C28.0009 2.82666 27.2111 2.93332 27.1222 3.0012C27.0136 3.08847 26.984 3.38905 26.984 4.33931C26.984 5.00836 27.0235 5.61923 27.063 5.68711C27.1321 5.78407 28.4649 5.80347 33.4899 5.80347C36.9748 5.80347 39.8674 5.78407 39.9266 5.75498C39.976 5.7162 40.0155 5.11502 40.0155 4.40718C40.0155 3.41814 39.9858 3.08847 39.8773 3.0012C39.4626 2.66182 32.5125 2.50668 29.0276 2.75879ZM38.663 3.91266C39.3836 3.98054 39.4824 4.0775 39.4034 4.69807C39.3639 5.02775 39.7588 5.00836 35.8493 4.85322C34.3586 4.79504 32.6408 4.79504 31.16 4.85322C27.2407 5.00836 27.6356 5.02775 27.5961 4.69807C27.5763 4.55263 27.5862 4.31991 27.6158 4.19386C27.6751 3.99023 27.7343 3.96114 28.1983 3.95145C28.4747 3.95145 28.8894 3.91266 29.1066 3.86418C29.5409 3.77691 37.5869 3.8157 38.663 3.91266Z" fill="#333333"/>
<path d="M0.22998 20.8329V23.4509H0.822319H1.41466L1.4344 21.8898L1.46402 20.3287L2.72768 21.8898L4.0012 23.4509H4.53431H5.06742V20.8329V18.2149H4.47508H3.88274L3.86299 19.8245L3.83338 21.4341L2.52036 19.8245L1.21721 18.2149H0.723596H0.22998V20.8329Z" fill="#333333"/>
<path d="M6.25208 19.6402C6.25208 20.6487 6.30144 21.2983 6.4199 21.8413C6.58773 22.5492 6.62722 22.6267 7.06161 22.9855C7.86126 23.6352 8.75964 23.7321 9.75675 23.2667C10.8822 22.7431 10.9809 22.4813 10.9908 20.0281V18.2149H10.3984H9.80611V19.8536V21.4922L9.35198 22.0352C8.85837 22.617 8.72015 22.6655 8.17718 22.4425C7.58484 22.2001 7.49599 21.8898 7.4565 19.9311L7.41701 18.2149H6.83454H6.25208V19.6402Z" fill="#333333"/>
<path d="M12.2742 20.8232V23.4509H12.8665H13.4588V22.7237V21.9965H14.0413H14.6238L15.0977 22.7237L15.5814 23.4509H16.2034C16.539 23.4509 16.8154 23.4218 16.8154 23.3927C16.8154 23.354 16.5785 22.9952 16.2823 22.5879L15.7492 21.8413L16.1441 21.5116C16.618 21.1238 16.8154 20.7068 16.8154 20.0863C16.8154 19.456 16.6674 19.2233 15.9763 18.6997L15.3839 18.2633L13.834 18.2245L12.2742 18.1955V20.8232ZM15.1371 19.3299C15.4827 19.5045 15.6308 19.7469 15.6308 20.1347C15.6308 20.3869 15.5518 20.4644 15.0878 20.7262C14.6633 20.9589 14.4263 21.0268 14.0018 21.0268H13.4588V20.1057V19.1845H14.1499C14.5843 19.1845 14.9594 19.2427 15.1371 19.3299Z" fill="#333333"/>
<path d="M25.0095 20.8329V23.4509H25.5525H26.0955V21.9383C26.0955 21.1141 26.135 20.4547 26.1745 20.4838C26.2139 20.5032 26.5792 21.0753 26.984 21.7444C27.9811 23.4024 27.9712 23.4024 29.0177 21.6377L29.7976 20.3093L29.8272 21.8801L29.847 23.4509H30.3899H30.9329V20.8232V18.2052L30.4294 18.2342L29.9161 18.2633L28.9584 19.8923L27.991 21.5213L27.0235 19.8729L26.0461 18.2245L25.5328 18.2149H25.0095V20.8329Z" fill="#333333"/>
<path d="M32.2163 19.7373C32.2163 20.8233 32.2657 21.4632 32.3743 21.948C32.5322 22.5783 32.5816 22.6559 33.0653 23.0437C33.5491 23.4316 33.6379 23.4704 34.3092 23.5189C34.9904 23.5673 35.0694 23.5577 35.721 23.228C36.2738 22.9565 36.4614 22.8013 36.6589 22.4717C36.8958 22.0644 36.9057 21.9674 36.9353 20.1251L36.9748 18.2149H36.3726H35.7703V19.8245V21.4341L35.3063 22.0159C34.8522 22.5686 34.8226 22.588 34.4573 22.5298C33.5392 22.3941 33.401 22.0547 33.401 19.8633V18.2149H32.8086H32.2163V19.7373Z" fill="#333333"/>
<path d="M38.2384 20.8329V23.4509H39.818C41.2988 23.4509 41.4469 23.4315 42.0195 23.1988C42.829 22.8691 42.9771 22.6946 42.9771 22.0256C42.9771 21.531 42.9475 21.4632 42.5822 21.1044L42.1873 20.7165L42.4243 20.4353C42.9278 19.8536 42.8784 19.2621 42.3157 18.8063C41.6345 18.2536 41.4568 18.2149 39.7785 18.2149H38.2384V20.8329ZM41.1902 19.233C41.6444 19.456 41.7233 19.8342 41.3778 20.1541C41.2001 20.319 41.0323 20.3481 40.2918 20.3481H39.4231V19.7178V19.0875H40.1635C40.6275 19.0875 41.0224 19.1457 41.1902 19.233ZM41.5358 21.4438C41.7332 21.5698 41.7924 21.6959 41.7924 21.948C41.7924 22.4619 41.5358 22.5782 40.3906 22.5782H39.4231V21.8898V21.2014L40.3511 21.2401C41.0027 21.2692 41.3482 21.3274 41.5358 21.4438Z" fill="#333333"/>
<path d="M45.4451 18.6221C45.3464 18.8548 44.8232 20.0281 44.2802 21.2401L43.293 23.4509H43.9149H44.5369L44.7541 22.9176L44.9713 22.3843H46.225H47.469L47.6664 22.8885L47.8737 23.4024L48.4957 23.4315C49.0584 23.4606 49.1176 23.4412 49.0683 23.2861C49.0387 23.1891 48.5845 22.1516 48.0613 20.9783C47.5381 19.8051 47.0543 18.6997 46.9753 18.5251C46.8371 18.2245 46.8174 18.2149 46.2349 18.2149H45.6327L45.4451 18.6221ZM46.6693 20.445C46.8667 20.9299 47.0247 21.3371 47.0247 21.3662C47.0247 21.3953 46.6693 21.4147 46.2349 21.4147C45.8005 21.4147 45.4451 21.3856 45.4451 21.3468C45.4451 21.1626 46.1757 19.4851 46.2349 19.5239C46.2843 19.553 46.4719 19.9602 46.6693 20.445Z" fill="#333333"/>
<path d="M49.7891 20.8232V23.4509H50.3814H50.9737V22.7237V21.9965H51.5463L52.1091 22.0062L52.6027 22.7237L53.0963 23.4509H53.7084C54.0539 23.4509 54.3303 23.4315 54.3303 23.4121C54.3303 23.3831 54.0835 23.0243 53.7874 22.5976L53.2444 21.8219L53.4813 21.6668C53.9157 21.3953 54.2316 20.8814 54.3007 20.3675C54.3896 19.6208 54.2119 19.2524 53.5109 18.7191L52.8988 18.2633L51.3489 18.2245L49.7891 18.1955V20.8232ZM52.652 19.3396C53.0272 19.5821 53.1457 19.776 53.1457 20.1057C53.1457 20.3675 53.0765 20.445 52.5928 20.7165C52.1584 20.9589 51.9314 21.0268 51.5068 21.0268H50.9737V20.1057V19.1845H51.6944C52.1979 19.1845 52.4842 19.233 52.652 19.3396Z" fill="#333333"/>
<path d="M56.8675 18.4767C56.7885 18.6221 56.2949 19.7275 55.7618 20.9299C55.2385 22.1322 54.7646 23.1891 54.7054 23.2764C54.6264 23.4315 54.6857 23.4509 55.2484 23.4509H55.8802L56.0777 22.937L56.2751 22.4328L57.5486 22.4037L58.8222 22.3746L59.0196 22.8885L59.2269 23.4024L59.8489 23.4315C60.4017 23.4606 60.461 23.4412 60.4116 23.2861C60.382 23.1891 59.8686 22.0159 59.2763 20.6874L58.2002 18.2633L57.598 18.2342C57.0353 18.2052 56.9958 18.2149 56.8675 18.4767ZM58.0225 20.4741C58.22 20.9396 58.3779 21.3371 58.3779 21.3662C58.3779 21.3953 58.0028 21.4147 57.5486 21.4147H56.7194L57.1241 20.445C57.3512 19.9117 57.5585 19.5045 57.598 19.553C57.6375 19.5917 57.8251 19.999 58.0225 20.4741Z" fill="#333333"/>
<path d="M61.1422 20.8329V23.4509H61.7346H62.3269V22.7916C62.3368 22.1807 62.3565 22.1225 62.6823 21.7734C62.8797 21.5698 63.0476 21.4147 63.0574 21.4341C63.0673 21.4535 63.4523 21.9092 63.8966 22.4522L64.7061 23.4509H65.3972H66.0981L65.6144 22.8401C65.3478 22.5104 64.8345 21.8607 64.4692 21.405L63.8176 20.5614L64.9036 19.3881L65.9895 18.2149H65.3083H64.6271L63.5017 19.4366L62.3763 20.6584L62.3466 19.4366L62.317 18.2149H61.7346H61.1422V20.8329Z" fill="#333333"/>
<path d="M19.6785 21.3663V21.8026H20.7644H21.8504V21.3663V20.9299H20.7644H19.6785V21.3663Z" fill="#333333"/>
<path d="M15.236 25.9333C15.236 26.583 15.2755 26.7284 15.5519 27.1842C15.8974 27.7659 16.1738 27.8823 16.6674 27.669C17.3881 27.349 17.4474 27.252 17.4474 26.2048L17.4572 25.2449L17.1907 25.2158L16.9143 25.1867V26.0982C16.9143 26.8933 16.8846 27.029 16.7168 27.1842C16.5589 27.3296 16.4601 27.349 16.2429 27.2714C15.8678 27.1454 15.7296 26.806 15.7296 25.943C15.7296 25.2158 15.7296 25.1964 15.4828 25.1964C15.2458 25.1964 15.236 25.2158 15.236 25.9333Z" fill="#333333"/>
<path d="M19.5797 26.4472V27.7174H19.8265C20.0536 27.7174 20.0635 27.6883 20.0931 26.9708L20.1227 26.2145L20.7446 26.9708C21.2086 27.5332 21.4258 27.7174 21.6134 27.7174H21.8503V26.4569V25.1963H21.5542H21.2679L21.2383 25.943L21.2086 26.6896L20.6163 25.972C20.251 25.5357 19.9252 25.2351 19.7969 25.2157C19.5797 25.1866 19.5797 25.1963 19.5797 26.4472Z" fill="#333333"/>
<path d="M23.9236 26.4569V27.7174H24.2198H24.5159V26.4569V25.1963H24.2198H23.9236V26.4569Z" fill="#333333"/>
<path d="M26.3324 25.3612C26.3719 25.4581 26.6088 26.0302 26.8655 26.6217C27.3098 27.6786 27.3394 27.7174 27.6257 27.7174C27.912 27.7174 27.9416 27.6786 28.3957 26.6023C28.6524 25.9914 28.8893 25.4194 28.9288 25.3321C28.9683 25.2157 28.9288 25.1866 28.7017 25.2157C28.4549 25.2448 28.3858 25.3418 28.0699 26.0399C27.8823 26.4763 27.6948 26.8544 27.6652 26.8932C27.6257 26.9223 27.4282 26.5538 27.2308 26.0787C26.8754 25.2448 26.8359 25.1963 26.5693 25.1963C26.3225 25.1963 26.283 25.2254 26.3324 25.3612Z" fill="#333333"/>
<path d="M30.7355 26.4569V27.7174H31.6733C32.5421 27.7174 32.6112 27.698 32.6112 27.5235C32.6112 27.3586 32.5322 27.3392 31.9498 27.3102L31.2785 27.2811V26.9902C31.2785 26.6993 31.2883 26.6993 31.851 26.6702C32.3348 26.6411 32.4138 26.612 32.4138 26.4569C32.4138 26.2823 32.3447 26.2629 31.8214 26.2629H31.2291V25.972V25.6812H31.93C32.5915 25.6812 32.6211 25.6715 32.5915 25.4581C32.5619 25.2545 32.5125 25.2448 31.6536 25.2157L30.7355 25.1866V26.4569Z" fill="#333333"/>
<path d="M34.5857 26.4569V27.7174H34.8819C35.1583 27.7174 35.178 27.6883 35.178 27.378C35.178 27.0677 35.1978 27.0387 35.4643 27.0387C35.6914 27.0387 35.8 27.1162 35.9678 27.378C36.1356 27.6398 36.2442 27.7174 36.4713 27.7174C36.7872 27.7174 36.7773 27.6495 36.4318 27.1841C36.2936 27.0096 36.3035 26.9708 36.5207 26.7187C36.7773 26.4278 36.8267 25.9914 36.649 25.6618C36.4911 25.3709 35.9579 25.1963 35.2274 25.1963H34.5857V26.4569ZM36.0468 25.7975C36.2146 25.9624 36.1949 26.4278 36.0073 26.4957C35.9185 26.5247 35.7013 26.5538 35.5137 26.5538C35.178 26.5538 35.178 26.5538 35.178 26.1175V25.6812H35.5532C35.7605 25.6812 35.9777 25.7296 36.0468 25.7975Z" fill="#333333"/>
<path d="M39.0281 25.3224C38.8998 25.3903 38.7221 25.5648 38.6332 25.7199C38.495 25.9817 38.495 26.0011 38.7616 26.2048C38.9195 26.3114 39.2453 26.5247 39.502 26.6605C39.7587 26.7962 39.9759 26.9805 39.9956 27.0677C40.045 27.2908 39.5909 27.378 39.1071 27.2326C38.7813 27.1453 38.6925 27.1453 38.6234 27.252C38.4852 27.4653 38.574 27.5623 39.0676 27.7077C39.4724 27.8338 39.5909 27.8338 39.9463 27.7077C40.4201 27.5526 40.7163 27.1356 40.5583 26.8835C40.4991 26.7962 40.1733 26.5829 39.8179 26.3987C39.3934 26.1854 39.1762 26.0108 39.1762 25.9042C39.1762 25.7587 39.2651 25.7296 39.7883 25.7393C40.3017 25.749 40.4004 25.7199 40.4399 25.5648C40.5386 25.2254 39.5612 25.0606 39.0281 25.3224Z" fill="#333333"/>
<path d="M42.4835 26.4569V27.7174H42.7797H43.0759V26.4569V25.1963H42.7797H42.4835V26.4569Z" fill="#333333"/>
<path d="M44.8529 25.4387C44.8529 25.6521 44.8924 25.6812 45.2478 25.6812H45.6427V26.6993V27.7174H45.9389H46.235V26.6993V25.6812H46.6299C46.9853 25.6812 47.0248 25.6521 47.0248 25.4387V25.1963H45.9389H44.8529V25.4387Z" fill="#333333"/>
<path d="M48.5056 25.2351C48.5056 25.2642 48.7228 25.6424 48.9992 26.0884C49.3843 26.7187 49.4928 26.9805 49.4928 27.3005C49.4928 27.6786 49.5126 27.7174 49.7397 27.7174C49.9667 27.7174 49.9865 27.6786 49.9865 27.3005C49.9865 26.9902 50.1049 26.6993 50.4801 26.069C50.875 25.4194 50.9441 25.2351 50.8256 25.2157C50.5492 25.1575 50.411 25.2642 50.1148 25.7684C49.9667 26.0399 49.8088 26.2629 49.7693 26.2629C49.7298 26.2629 49.5521 26.0205 49.3744 25.7296C49.1078 25.2933 49.0091 25.1963 48.782 25.1963C48.6241 25.1963 48.5056 25.2157 48.5056 25.2351Z" fill="#333333"/>
</g>
<defs>
<clipPath id="clip0_5_578">
<rect width="66" height="28" fill="white"/>
</clipPath>
</defs>
</svg>
